<?xml version="1.0" encoding="UTF-8"?><svg id="_레이어_1" xmlns="http://www.w3.org/2000/svg" viewBox="0 0 1934.62 600"><defs><style>.cls-1{fill:#161619;}</style></defs><g><path class="cls-1" d="M1121.13,0c-.99,0-1.98,.03-2.97,.04-.12-.02-.24-.04-.37-.04h-58.97c-10.17,0-18.41,9.85-18.41,22.01V577.99c0,12.16,8.24,22.01,18.41,22.01h58.97c.13,0,.25-.03,.37-.05,.99,.01,1.98,.05,2.97,.05,138.58,0,250.92-134.31,250.92-300S1259.71,0,1121.13,0Z"/><path class="cls-1" d="M1049.96,600c.99,0,1.98-.03,2.97-.04,.12,.02,.24,.04,.37,.04h58.07c10.17,0,18.41-9.85,18.41-22.01V22.01c0-12.16-8.24-22.01-18.41-22.01h-58.07c-.13,0-.25,.03-.37,.05-.99-.01-1.98-.05-2.97-.05-138.58,0-250.92,134.31-250.92,300s112.34,300,250.92,300Z"/></g><rect class="cls-1" x="554.43" y="-2.46" width="183.87" height="604.92" rx="20" ry="20"/><path class="cls-1" d="M343.7,300h0c82.84,0,150-67.16,150-150S426.54,0,343.7,0H16.27C5.23,0-3.73,8.95-3.73,20V580c0,11.05,8.95,20,20,20H343.7c82.84,0,150-67.16,150-150s-67.16-150-150-150Z"/><path class="cls-1" d="M1868.57,484.87c-102.1,0-184.87-82.77-184.87-184.87h250.92C1934.62,134.31,1822.28,0,1683.7,0,1682.71,0,1681.72,.03,1680.73,.04,1680.61,.03,1680.49,0,1680.36,0h-229.17C1441.02,0,1432.78,9.85,1432.78,22.01V577.99c0,12.16,8.24,22.01,18.41,22.01h229.17c.13,0,.25-.03,.37-.05,.99,.01,1.98,.05,2.97,.05,76.19,0,144.44-40.6,190.46-104.7,3.15-4.38-.07-10.44-5.46-10.44-.04,0-.09,0-.13,0Z"/></svg>