<?xml version="1.0" encoding="UTF-8"?><svg id="_레이어_1" xmlns="http://www.w3.org/2000/svg" viewBox="0 0 1617.79 600"><defs><style>.cls-1{fill:#161619;}</style></defs><path class="cls-1" d="M250.92,0c-.99,0-1.98,.03-2.97,.04-.12-.02-.24-.04-.37-.04H18.41C8.24,0,0,9.85,0,22.01V577.99c0,12.16,8.24,22.01,18.41,22.01H247.58c.13,0,.25-.03,.37-.05,.99,.01,1.98,.05,2.97,.05,138.58,0,250.92-134.31,250.92-300S389.5,0,250.92,0Z"/><rect class="cls-1" x="564.99" y=".09" width="183.85" height="599.91" rx="20" ry="20"/><path class="cls-1" d="M794.8,198.09c0-103.42,79.25-188.33,180.34-197.3,9.53-.85,17.75,6.61,17.75,16.18V203.84c108.91,.58,197.02,89.03,197.02,198.07,0,103.42-79.25,188.33-180.34,197.3-9.53,.85-17.75-6.61-17.75-16.18v-186.88c-108.91-.58-197.02-89.03-197.02-198.07Z"/><path class="cls-1" d="M1617.79,198.09C1617.79,88.69,1529.11,0,1419.71,0V.92c-.57-.51-1.32-.83-2.14-.83h-159.2c-11.84,0-21.43,9.59-21.43,21.43V578.57c0,11.84,9.59,21.43,21.43,21.43h140.98c11.84,0,21.43-9.59,21.43-21.43v-182.41c108.91-.58,197.02-89.03,197.02-198.07Z"/></svg>