<svg xmlns="http://www.w3.org/2000/svg" xmlns:xlink="http://www.w3.org/1999/xlink" width="272" height="418" viewBox="0 0 272 418">
  <defs>
    <clipPath id="clip-path">
      <rect id="사각형_120" data-name="사각형 120" width="272" height="418" fill="#fff"/>
    </clipPath>
  </defs>
  <g id="마스크_그룹_6" data-name="마스크 그룹 6" clip-path="url(#clip-path)">
    <g id="그룹_332" data-name="그룹 332">
      <rect id="사각형_117" data-name="사각형 117" width="272" height="418" fill="none"/>
      <g id="그룹_331" data-name="그룹 331" transform="translate(4968.67 -2563.223)">
        <ellipse id="타원_57" data-name="타원 57" cx="100.665" cy="19.211" rx="100.665" ry="19.211" transform="translate(-4898.001 2942.801)" fill="#ecdf19"/>
        <g id="그룹_330" data-name="그룹 330" transform="matrix(0.966, -0.259, 0.259, 0.966, -4969.708, 2609.717)">
          <g id="그룹_329" data-name="그룹 329">
            <path id="패스_186" data-name="패스 186" d="M838.892,413.783V390.392H734.3v23.391a53.22,53.22,0,0,0-39.065,51.273V678.287A29.663,29.663,0,0,0,724.9,707.951h123.4a29.663,29.663,0,0,0,29.663-29.663V465.056A53.22,53.22,0,0,0,838.892,413.783Z" transform="translate(-695.235 -334.946)" fill="#fff" stroke="#161619" stroke-miterlimit="10" stroke-width="2"/>
            <rect id="사각형_118" data-name="사각형 118" width="182.722" height="199.191" transform="translate(0 137.895)" fill="#fff" stroke="#161619" stroke-miterlimit="10" stroke-width="2"/>
            <rect id="사각형_119" data-name="사각형 119" width="146.178" height="65.528" rx="18.966" transform="translate(18.272)" fill="#fff" stroke="#161619" stroke-miterlimit="10" stroke-width="2"/>
          </g>
          <path id="패스_187" data-name="패스 187" d="M903.2,547.891c-1.978-1.978-5.306-2.246-9.124-1.082a6.78,6.78,0,0,0-1.773-5.035c-4.084-4.083-13.909-.878-21.946,7.159S859.119,566.8,863.2,570.879c1.979,1.979,5.306,2.247,9.124,1.082A6.783,6.783,0,0,0,874.1,577c4.084,4.084,13.909.878,21.947-7.159S907.289,551.974,903.2,547.891Z" transform="translate(-739.608 -374.891)" fill="#ecdf19"/>
          <text id="VISUAL_DESIGN" data-name="VISUAL
DESIGN" transform="translate(23.814 255.463)" fill="#161619" font-size="24" font-family="Orbitron-Bold, Orbitron" font-weight="700"><tspan x="0" y="0">VISUAL</tspan><tspan x="0" y="29">DESIGN</tspan></text>
        </g>
      </g>
    </g>
  </g>
</svg>
