<svg xmlns="http://www.w3.org/2000/svg" xmlns:xlink="http://www.w3.org/1999/xlink" width="272" height="418" viewBox="0 0 272 418">
  <defs>
    <clipPath id="clip-path">
      <rect id="사각형_112" data-name="사각형 112" width="272" height="418" fill="#fff"/>
    </clipPath>
  </defs>
  <g id="마스크_그룹_4" data-name="마스크 그룹 4" clip-path="url(#clip-path)">
    <g id="그룹_323" data-name="그룹 323">
      <rect id="사각형_109" data-name="사각형 109" width="272" height="418" fill="none"/>
      <g id="그룹_322" data-name="그룹 322" transform="translate(5537.894 -2562.425)">
        <ellipse id="타원_55" data-name="타원 55" cx="100.665" cy="19.211" rx="100.665" ry="19.211" transform="translate(-5466.188 2942.801)" fill="#00b5e5"/>
        <g id="그룹_321" data-name="그룹 321" transform="matrix(0.966, -0.259, 0.259, 0.966, -5537.894, 2609.717)">
          <g id="그룹_320" data-name="그룹 320" transform="translate(0)">
            <path id="패스_182" data-name="패스 182" d="M1226.976,413.783V390.392H1122.384v23.391a53.22,53.22,0,0,0-39.065,51.273V678.287a29.663,29.663,0,0,0,29.662,29.663h123.4a29.663,29.663,0,0,0,29.663-29.663V465.056A53.22,53.22,0,0,0,1226.976,413.783Z" transform="translate(-1083.319 -334.946)" fill="#fff" stroke="#161619" stroke-miterlimit="10" stroke-width="2"/>
            <rect id="사각형_110" data-name="사각형 110" width="182.722" height="199.191" transform="translate(0 137.895)" fill="#fff" stroke="#161619" stroke-miterlimit="10" stroke-width="2"/>
            <rect id="사각형_111" data-name="사각형 111" width="146.178" height="65.528" rx="18.966" transform="translate(18.272)" fill="#fff" stroke="#161619" stroke-miterlimit="10" stroke-width="2"/>
          </g>
          <text id="MEDIA_DESIGN" data-name="MEDIA
DESIGN" transform="translate(21.2 255.463)" fill="#161619" font-size="24" font-family="Orbitron-Bold, Orbitron" font-weight="700"><tspan x="0" y="0">MEDIA</tspan><tspan x="0" y="29">DESIGN</tspan></text>
          <path id="패스_183" data-name="패스 183" d="M1292.541,550.159a13.3,13.3,0,0,0-13.3-13.3h0a13.3,13.3,0,0,0-13.3,13.3v22.09h26.6Z" transform="translate(-1132.078 -374.052)" fill="#00b5e5"/>
        </g>
      </g>
    </g>
  </g>
</svg>
