<svg xmlns="http://www.w3.org/2000/svg" width="287.302" height="493.637" viewBox="0 0 287.302 493.637">
  <g id="그룹_265" data-name="그룹 265" transform="translate(5941.5 -2476.006)">
    <g id="그룹_211" data-name="그룹 211" transform="translate(-5941.5 2574.006)">
      <g id="패스_155" data-name="패스 155" transform="translate(-494.971 -578.743)" fill="#fff" stroke-linecap="round" stroke-miterlimit="10">
        <path d="M 667.0405883789062 767.2447509765625 L 610.2040405273438 767.2447509765625 C 606.9625244140625 767.2447509765625 603.8185424804688 766.6101684570312 600.859375 765.3585815429688 C 598.0006713867188 764.1494750976562 595.4329833984375 762.4183349609375 593.2278442382812 760.2133178710938 C 591.0226440429688 758.0081176757812 589.2913818359375 755.4405517578125 588.082275390625 752.581787109375 C 586.8306274414062 749.62255859375 586.1959838867188 746.4783935546875 586.1959838867188 743.2366943359375 L 586.1959838867188 622.741943359375 C 586.1959838867188 618.4266967773438 587.3565673828125 614.1963500976562 589.55224609375 610.5082397460938 C 591.683349609375 606.9285888671875 594.7261962890625 603.9451293945312 598.3519287109375 601.8802490234375 L 598.8569946289062 601.5925903320312 L 598.8569946289062 601.0112915039062 L 598.8569946289062 501.593505859375 C 598.8569946289062 498.9130249023438 599.3817138671875 496.3133850097656 600.4164428710938 493.8667602539062 C 601.4161376953125 491.5030822753906 602.8475341796875 489.3800964355469 604.6707763671875 487.5568237304688 C 606.4940795898438 485.7335510253906 608.6170654296875 484.3021545410156 610.9807739257812 483.3024597167969 C 613.4274291992188 482.2677307128906 616.0270385742188 481.7430419921875 618.70751953125 481.7430419921875 L 658.5382690429688 481.7430419921875 C 661.2184448242188 481.7430419921875 663.8179321289062 482.2677612304688 666.2645263671875 483.3026123046875 C 668.628173828125 484.3023986816406 670.751220703125 485.7338562011719 672.5745849609375 487.5572204589844 C 674.39794921875 489.380615234375 675.8294067382812 491.5036010742188 676.8292236328125 493.8672485351562 C 677.8640747070312 496.3138732910156 678.3887939453125 498.9133605957031 678.3887939453125 501.593505859375 L 678.3887939453125 601.0112915039062 L 678.3887939453125 601.592529296875 L 678.8938598632812 601.8801879882812 C 682.5192260742188 603.9451904296875 685.5619506835938 606.9287109375 687.6931762695312 610.5082397460938 C 689.8890380859375 614.196533203125 691.0497436523438 618.4268798828125 691.0497436523438 622.741943359375 L 691.0497436523438 743.2366943359375 C 691.0497436523438 746.4781494140625 690.4151000976562 749.6221313476562 689.1634521484375 752.581298828125 C 687.9542846679688 755.4400634765625 686.2230224609375 758.0076904296875 684.017822265625 760.212890625 C 681.8125 762.4180908203125 679.2448120117188 764.1492919921875 676.3859252929688 765.3584594726562 C 673.426513671875 766.610107421875 670.2823486328125 767.2447509765625 667.0405883789062 767.2447509765625 Z" stroke="none"/>
        <path d="M 618.70751953125 482.7430419921875 C 613.6719970703125 482.7430419921875 608.9380493164062 484.7036743164062 605.3778686523438 488.263916015625 C 601.8176879882812 491.8240966796875 599.8569946289062 496.5579833984375 599.8569946289062 501.593505859375 L 599.8569946289062 602.173828125 L 598.8468017578125 602.7492065429688 C 595.37109375 604.7285766601562 592.4542846679688 607.5885009765625 590.4115600585938 611.019775390625 C 588.3079223632812 614.55322265625 587.1959838867188 618.606689453125 587.1959838867188 622.741943359375 L 587.1959838867188 743.2366943359375 C 587.1959838867188 746.3438720703125 587.8040161132812 749.35693359375 589.0032958984375 752.1922607421875 C 590.1620483398438 754.9317626953125 591.8212890625 757.3925170898438 593.9349365234375 759.506103515625 C 596.048583984375 761.6197509765625 598.5093383789062 763.2789306640625 601.2489624023438 764.4375610351562 C 604.0841674804688 765.63671875 607.0971069335938 766.2447509765625 610.2040405273438 766.2447509765625 L 667.0405883789062 766.2447509765625 C 670.1477661132812 766.2447509765625 673.1609497070312 765.6366577148438 675.996337890625 764.4374389648438 C 678.7360229492188 763.2786865234375 681.1969604492188 761.619384765625 683.3106689453125 759.5057373046875 C 685.4243774414062 757.39208984375 687.0836791992188 754.9312744140625 688.242431640625 752.1917724609375 C 689.4417114257812 749.3564453125 690.0497436523438 746.3436279296875 690.0497436523438 743.2366943359375 L 690.0497436523438 622.741943359375 C 690.0497436523438 618.6068725585938 688.9376831054688 614.553466796875 686.8339233398438 611.0198364257812 C 684.7910766601562 607.588623046875 681.874267578125 604.7286987304688 678.39892578125 602.7491455078125 L 677.3887939453125 602.1737670898438 L 677.3887939453125 501.593505859375 C 677.3887939453125 496.5585327148438 675.4279174804688 491.8247680664062 671.8674926757812 488.2643432617188 C 668.3070068359375 484.703857421875 663.5733032226562 482.7430419921875 658.5382690429688 482.7430419921875 L 618.70751953125 482.7430419921875 M 618.70751953125 480.7430419921875 L 658.5382690429688 480.7430419921875 C 670.0534057617188 480.7430419921875 679.3887939453125 490.0784301757812 679.3887939453125 501.593505859375 L 679.3887939453125 601.0112915039062 C 686.9437255859375 605.3145141601562 692.0497436523438 613.425537109375 692.0497436523438 622.741943359375 L 692.0497436523438 743.2366943359375 C 692.0497436523438 757.0480346679688 680.8531494140625 768.2447509765625 667.0405883789062 768.2447509765625 L 610.2040405273438 768.2447509765625 C 596.3927001953125 768.2447509765625 585.1959838867188 757.0491333007812 585.1959838867188 743.2366943359375 L 585.1959838867188 622.741943359375 C 585.1959838867188 613.425537109375 590.301025390625 605.3145141601562 597.8569946289062 601.0112915039062 L 597.8569946289062 501.593505859375 C 597.8569946289062 490.0773315429688 607.1912841796875 480.7430419921875 618.70751953125 480.7430419921875 Z" stroke="none" fill="#000"/>
      </g>
      <g id="패스_156" data-name="패스 156" transform="translate(-504.727 -457.785)" fill="#fff" stroke-linecap="round" stroke-miterlimit="10">
        <path d="M 708.75048828125 852.4224853515625 L 588.0056762695312 852.4224853515625 C 584.1509399414062 852.4224853515625 580.527099609375 850.9215087890625 577.8016357421875 848.1961059570312 C 575.0762329101562 845.4706420898438 573.5752563476562 841.8468017578125 573.5752563476562 837.9920043945312 L 573.5752563476562 832.5831909179688 L 573.5752563476562 832.016845703125 L 573.0895385742188 831.7255859375 C 571.1837768554688 830.5828247070312 569.5272827148438 829.5470581054688 568.0254516601562 828.5590209960938 C 556.9691772460938 821.2872314453125 549.0436401367188 815.582275390625 542.3272094726562 810.0609741210938 C 534.1954956054688 803.376220703125 527.7741088867188 796.8544311523438 522.696044921875 790.1229858398438 C 517.0447387695312 782.6315307617188 512.9432983398438 774.765380859375 510.1573791503906 766.0750732421875 C 508.7002563476562 761.5298461914062 507.5906372070312 756.6715087890625 506.8593139648438 751.6351318359375 C 506.1079406738281 746.4607543945312 505.7269897460938 740.9007568359375 505.7269897460938 735.1096801757812 L 505.7269897460938 701.9210815429688 C 505.7269897460938 699.3212890625 506.0513000488281 696.73876953125 506.6909790039062 694.2451782226562 C 507.311767578125 691.8251953125 508.2308349609375 689.4819946289062 509.4226684570312 687.280517578125 C 511.7645874023438 682.9546508789062 515.1570434570312 679.2023315429688 519.2332153320312 676.4290771484375 C 524.3509521484375 672.9467163085938 530.3362426757812 671.1060180664062 536.5420532226562 671.1060180664062 L 760.2140502929688 671.1060180664062 C 766.4205322265625 671.1060180664062 772.40625 672.9467163085938 777.5239868164062 676.4290161132812 C 781.5997314453125 679.2023315429688 784.9918212890625 682.9547119140625 787.3336181640625 687.280517578125 C 788.525390625 689.4819946289062 789.4443969726562 691.8252563476562 790.065185546875 694.2451171875 C 790.7047729492188 696.73876953125 791.0291137695312 699.3212890625 791.0291137695312 701.9210815429688 L 791.0291137695312 735.1096801757812 C 791.0291137695312 740.9007568359375 790.6481323242188 746.4607543945312 789.8968505859375 751.6351318359375 C 789.16552734375 756.6715087890625 788.0559692382812 761.5298461914062 786.5989379882812 766.0750732421875 C 783.8131103515625 774.7654418945312 779.7117919921875 782.631591796875 774.0606079101562 790.1229858398438 C 768.982666015625 796.8544921875 762.5614013671875 803.376220703125 754.4298095703125 810.0609741210938 C 747.71337890625 815.5823364257812 739.7879028320312 821.2872924804688 728.7318725585938 828.5588989257812 C 727.232421875 829.5447998046875 725.5758666992188 830.5806884765625 723.6675415039062 831.7257080078125 L 723.1820068359375 832.0170288085938 L 723.1820068359375 832.5831909179688 L 723.1820068359375 837.9920043945312 C 723.1820068359375 841.8466796875 721.6808471679688 845.4705810546875 718.9551391601562 848.196044921875 C 716.2294311523438 850.9215087890625 712.6053466796875 852.4224853515625 708.75048828125 852.4224853515625 Z" stroke="none"/>
        <path d="M 536.5420532226562 672.1060180664062 C 530.5377197265625 672.1060180664062 524.7469482421875 673.8867797851562 519.7957153320312 677.255859375 C 515.85107421875 679.9396362304688 512.5682373046875 683.5707397460938 510.3020629882812 687.7566528320312 C 509.1491088867188 689.88623046875 508.2600708007812 692.1528930664062 507.6596069335938 694.49365234375 C 507.040771484375 696.9061279296875 506.7269897460938 699.405029296875 506.7269897460938 701.9210815429688 L 506.7269897460938 735.1096801757812 C 506.7269897460938 740.8529052734375 507.1044921875 746.364501953125 507.8489379882812 751.491455078125 C 508.5723266601562 756.4732055664062 509.6693725585938 761.277099609375 511.109619140625 765.7698364257812 C 513.8606567382812 774.3514404296875 517.9117431640625 782.1204223632812 523.4943237304688 789.520751953125 C 528.5242309570312 796.1884155273438 534.8922729492188 802.6544799804688 542.9622802734375 809.2885131835938 C 549.6502075195312 814.786376953125 557.5494384765625 820.471923828125 568.5750732421875 827.7236328125 C 570.0648803710938 828.7037963867188 571.7097778320312 829.7322998046875 573.603759765625 830.867919921875 L 574.5752563476562 831.450439453125 L 574.5752563476562 837.9920043945312 C 574.5752563476562 841.5796508789062 575.9722290039062 844.952392578125 578.5087890625 847.489013671875 C 581.0452880859375 850.0255126953125 584.4180297851562 851.4224853515625 588.0056762695312 851.4224853515625 L 708.75048828125 851.4224853515625 C 712.3381958007812 851.4224853515625 715.7112426757812 850.0255126953125 718.248046875 847.4888916015625 C 720.784912109375 844.9522705078125 722.1820068359375 841.57958984375 722.1820068359375 837.9920043945312 L 722.1820068359375 831.4508056640625 L 723.1530151367188 830.8682250976562 C 725.04931640625 829.7304077148438 726.694580078125 828.70166015625 728.182373046875 827.7234497070312 C 739.2076416015625 820.4720458984375 747.1068115234375 814.7864990234375 753.7947387695312 809.2885131835938 C 761.8645629882812 802.654541015625 768.2324829101562 796.1884765625 773.2622680664062 789.520751953125 C 778.8446655273438 782.1204833984375 782.8956298828125 774.3515014648438 785.6466064453125 765.7698364257812 C 787.0867919921875 761.2771606445312 788.183837890625 756.4732055664062 788.9071655273438 751.491455078125 C 789.651611328125 746.364501953125 790.029052734375 740.8529052734375 790.029052734375 735.1096801757812 L 790.029052734375 701.9210815429688 C 790.029052734375 699.4050903320312 789.71533203125 696.9061279296875 789.096435546875 694.49365234375 C 788.49609375 692.1528930664062 787.6070556640625 689.8861694335938 786.4541625976562 687.756591796875 C 784.1881103515625 683.5706787109375 780.9056396484375 679.9396362304688 776.96142578125 677.2557983398438 C 772.0101928710938 673.8867797851562 766.2191162109375 672.1060180664062 760.2140502929688 672.1060180664062 L 536.5420532226562 672.1060180664062 M 536.5420532226562 670.1060180664062 L 760.2140502929688 670.1060180664062 C 766.840576171875 670.1060180664062 772.9916381835938 672.135498046875 778.0865478515625 675.602294921875 C 786.5003662109375 681.327392578125 792.029052734375 690.9766845703125 792.029052734375 701.9210815429688 L 792.029052734375 735.1096801757812 C 792.029052734375 782.6163940429688 767.1578369140625 804.4827880859375 729.2813720703125 829.3944091796875 C 727.6085205078125 830.4943237304688 725.903076171875 831.550537109375 724.1820068359375 832.5831909179688 L 724.1820068359375 837.9920043945312 C 724.1820068359375 846.5145263671875 717.2730102539062 853.4224853515625 708.75048828125 853.4224853515625 L 588.0056762695312 853.4224853515625 C 579.4832153320312 853.4224853515625 572.5752563476562 846.5145263671875 572.5752563476562 837.9920043945312 L 572.5752563476562 832.5831909179688 C 570.85302734375 831.550537109375 569.1476440429688 830.4943237304688 567.475830078125 829.3944091796875 C 529.599365234375 804.4827880859375 504.7269897460938 782.6163940429688 504.7269897460938 735.1096801757812 L 504.7269897460938 701.9210815429688 C 504.7269897460938 690.9766845703125 510.2557983398438 681.327392578125 518.6707153320312 675.602294921875 C 523.7655639648438 672.135498046875 529.9155883789062 670.1060180664062 536.5420532226562 670.1060180664062 Z" stroke="none" fill="#000"/>
      </g>
    </g>
    <text id="BROG" transform="translate(-5851.274 2877.196)" font-size="33" font-family="Orbitron-Bold, Orbitron" font-weight="700"><tspan x="0" y="0">BROG</tspan></text>
  </g>
</svg>
