<svg xmlns="http://www.w3.org/2000/svg" width="486.22" height="197.073" viewBox="0 0 486.22 197.073">
  <g id="그룹_266" data-name="그룹 266" transform="translate(5014 -3310.15)">
    <g id="패스_170" data-name="패스 170" transform="translate(-4770.89 1749.947)" fill="#494949" stroke-miterlimit="10">
      <path d="M 33.60823822021484 1756.276123046875 L -242.1099853515625 1756.276123046875 L -242.1099853515625 1744.157104492188 L -226.5950012207031 1731.142700195312 L -23.43848609924316 1566.649658203125 L 242.1105041503906 1566.649658203125 L 242.1105041503906 1579.020751953125 L 33.60823822021484 1756.276123046875 Z" stroke="none"/>
      <path d="M -23.08442687988281 1567.649658203125 L -225.9586791992188 1731.914184570312 L -241.1100006103516 1744.62353515625 L -241.1100006103516 1755.276123046875 L 33.24060440063477 1755.276123046875 L 241.1104583740234 1578.558349609375 L 241.1104583740234 1567.649658203125 L -23.08442687988281 1567.649658203125 M -23.79254150390625 1565.649658203125 L 243.1104583740234 1565.649658203125 L 243.1104583740234 1579.483154296875 L 33.97586059570312 1757.276123046875 L -243.1100006103516 1757.276123046875 L -243.1100006103516 1743.690673828125 L -227.2314147949219 1730.371337890625 L -23.79254150390625 1565.649658203125 Z" stroke="none" fill="#161619"/>
    </g>
    <g id="패스_171" data-name="패스 171" transform="translate(-4770.89 1749.947)" fill="#fff" stroke-miterlimit="10">
      <path d="M 33.6077995300293 1742.6904296875 L -240.316650390625 1742.6904296875 L -25.96137428283691 1566.649658203125 L 240.3931884765625 1566.649658203125 L 33.6077995300293 1742.6904296875 Z" stroke="none"/>
      <path d="M 33.23985290527344 1741.6904296875 L 237.6758728027344 1567.649658203125 L -25.60337257385254 1567.649658203125 L -237.5233306884766 1741.6904296875 L 33.23985290527344 1741.6904296875 M 33.97586059570312 1743.6904296875 L -243.1099395751953 1743.6904296875 L -26.31940650939941 1565.649658203125 L 243.1104583740234 1565.649658203125 L 33.97586059570312 1743.6904296875 Z" stroke="none" fill="#161619"/>
    </g>
    <path id="패스_172" data-name="패스 172" d="M33.976,1565.65" transform="translate(-4770.89 1749.947)" fill="#fff" stroke="#161619" stroke-miterlimit="10" stroke-width="1"/>
    <g id="패스_173" data-name="패스 173" transform="translate(-4770.89 1749.947)" fill="#fff" stroke-miterlimit="10">
      <path d="M 26.10997772216797 1711.8310546875 L -128.8343048095703 1711.8310546875 C -131.4630126953125 1709.604614257812 -138.7154693603516 1706.230346679688 -146.3753204345703 1702.666870117188 C -153.4094848632812 1699.394287109375 -161.2939300537109 1695.726196289062 -164.5999298095703 1693.286254882812 L -23.6811695098877 1575.0830078125 L 186.7397003173828 1575.0830078125 L 26.10997772216797 1711.8310546875 Z" stroke="none"/>
      <path d="M -23.31727981567383 1576.0830078125 L -162.9508361816406 1693.208129882812 C -159.3128662109375 1695.545043945312 -152.2857666015625 1698.814208984375 -145.9533996582031 1701.760131835938 C -138.1855163574219 1705.3740234375 -131.3960571289062 1708.53271484375 -128.478759765625 1710.8310546875 L 25.74197006225586 1710.8310546875 L 184.0224151611328 1576.0830078125 L -23.31727981567383 1576.0830078125 M -24.04500198364258 1574.0830078125 L 189.4570007324219 1574.0830078125 L 26.47800064086914 1712.8310546875 L -129.2160034179688 1712.8310546875 C -133.7489929199219 1708.505004882812 -161.0039978027344 1698.1669921875 -166.1640014648438 1693.29296875 L -24.04500198364258 1574.0830078125 Z" stroke="none" fill="#161619"/>
    </g>
    <g id="패스_174" data-name="패스 174" transform="translate(-4770.89 1749.947)" fill="#494949" stroke-miterlimit="10">
      <path d="M -130.2306060791016 1711.72900390625 L -164.6832122802734 1693.510498046875 L -140.0856018066406 1688.657836914062 L -130.2306060791016 1711.72900390625 Z" stroke="none"/>
      <path d="M -140.3862762451172 1689.226806640625 L -163.2023315429688 1693.727905273438 L -131.2450561523438 1710.626953125 L -140.3862762451172 1689.226806640625 M -139.7849273681641 1688.0888671875 L -129.2161407470703 1712.8310546875 L -166.1641082763672 1693.29296875 L -139.7849273681641 1688.0888671875 Z" stroke="none" fill="#161619"/>
    </g>
    <g id="패스_175" data-name="패스 175" transform="translate(-4770.89 1749.947)" fill="#fff" stroke-miterlimit="10">
      <path d="M 135.656005859375 1586.963012695312 L -8.391994476318359 1586.963012695312 C -10.01570892333984 1586.963012695312 -10.98330402374268 1585.893798828125 -11.34739971160889 1584.893188476562 C -11.71149444580078 1583.892578125 -11.65732860565186 1582.451538085938 -10.41332817077637 1581.408081054688 L 8.519647598266602 1565.527099609375 C 11.84407615661621 1562.738647460938 16.06469535827637 1561.203002929688 20.40400505065918 1561.203002929688 L 160.4179992675781 1561.203002929688 C 162.4684753417969 1561.203002929688 163.6902923583984 1562.552856445312 164.1499786376953 1563.816162109375 C 164.6097259521484 1565.07958984375 164.5412445068359 1566.899047851562 162.9703216552734 1568.216918945312 L 144.4253387451172 1583.772827148438 C 141.9720001220703 1585.829956054688 138.8576049804688 1586.963012695312 135.656005859375 1586.963012695312 Z" stroke="none"/>
      <path d="M 135.656005859375 1585.963012695312 C 138.6230010986328 1585.963012695312 141.5092315673828 1584.912963867188 143.7826690673828 1583.006591796875 L 162.32763671875 1567.450805664062 C 163.8068389892578 1566.2099609375 163.377197265625 1564.616821289062 163.2102813720703 1564.158203125 C 163.0433654785156 1563.699462890625 162.3487548828125 1562.203002929688 160.4179992675781 1562.203002929688 L 20.40400505065918 1562.203002929688 C 16.29933929443359 1562.203002929688 12.30694961547852 1563.655639648438 9.162310600280762 1566.293334960938 L -9.770689010620117 1582.17431640625 C -10.83838367462158 1583.069946289062 -10.52818965911865 1584.220092773438 -10.40768909454346 1584.55126953125 C -10.28718948364258 1584.882446289062 -9.785661697387695 1585.963012695312 -8.391994476318359 1585.963012695312 L 135.656005859375 1585.963012695312 M 135.656005859375 1587.963012695312 L -8.391994476318359 1587.963012695312 C -12.26199531555176 1587.963012695312 -14.02099514007568 1583.129028320312 -11.05599498748779 1580.641967773438 L 7.877005100250244 1564.760986328125 C 11.38800525665283 1561.816040039062 15.82300472259521 1560.203002929688 20.40400505065918 1560.203002929688 L 160.4179992675781 1560.203002929688 C 165.0599975585938 1560.203002929688 167.1690063476562 1566 163.6130065917969 1568.983032226562 L 145.0680084228516 1584.538940429688 C 142.4300079345703 1586.7509765625 139.0980072021484 1587.963012695312 135.656005859375 1587.963012695312 Z" stroke="none" fill="#161619"/>
    </g>
    <text id="ABOUT" transform="translate(-4833.89 3403.687)" font-size="30.851" font-family="Orbitron-Bold, Orbitron" font-weight="700"><tspan x="0" y="0">ABOUT</tspan></text>
  </g>
</svg>
