<svg id="그룹_306" data-name="그룹 306" xmlns="http://www.w3.org/2000/svg" width="272" height="418" viewBox="0 0 272 418">
  <rect id="사각형_102" data-name="사각형 102" width="272" height="418" fill="none"/>
  <g id="그룹_292" data-name="그룹 292">
    <g id="그룹_288" data-name="그룹 288" transform="translate(4404.147 -1653.5)">
      <ellipse id="타원_47" data-name="타원 47" cx="100.281" cy="19.211" rx="100.281" ry="19.211" transform="translate(-4332.71 2033.078)" fill="#db3633"/>
      <g id="그룹_258" data-name="그룹 258">
        <g id="그룹_214" data-name="그룹 214" transform="translate(-4323.355 1679.777)">
          <g id="그룹_213" data-name="그룹 213" transform="translate(0)">
            <path id="패스_157" data-name="패스 157" d="M453.419,413.783V390.392H348.827v23.391a53.22,53.22,0,0,0-39.065,51.273V678.287a29.663,29.663,0,0,0,29.663,29.663h123.4a29.663,29.663,0,0,0,29.663-29.663V465.056A53.219,53.219,0,0,0,453.419,413.783Z" transform="translate(-309.762 -334.946)" fill="#fff" stroke="#161619" stroke-miterlimit="10" stroke-width="2"/>
            <rect id="사각형_85" data-name="사각형 85" width="182.722" height="199.191" transform="translate(0 137.895)" fill="#fff" stroke="#161619" stroke-miterlimit="10" stroke-width="2"/>
            <rect id="사각형_86" data-name="사각형 86" width="146.178" height="65.528" rx="18.966" transform="translate(18.272)" fill="#fff" stroke="#161619" stroke-miterlimit="10" stroke-width="2"/>
          </g>
          <text id="FASION_DESIGN" data-name="FASION
DESIGN" transform="translate(26.426 255.463)" fill="#161619" font-size="24" font-family="Orbitron-Bold, Orbitron" font-weight="700"><tspan x="0" y="0">FASION</tspan><tspan x="0" y="29">DESIGN</tspan></text>
        </g>
        <path id="패스_158" data-name="패스 158" d="M1675.522,996.372A23.519,23.519,0,0,0,1652,1019.891a23.518,23.518,0,0,0-23.518-23.518A23.519,23.519,0,0,0,1652,972.854,23.519,23.519,0,0,0,1675.522,996.372Z" transform="translate(-5832.479 867.928)" fill="#db3633"/>
      </g>
    </g>
    <rect id="사각형_99" data-name="사각형 99" width="272" height="418" fill="none"/>
  </g>
</svg>
