<svg xmlns="http://www.w3.org/2000/svg" width="805.281" height="525.589" viewBox="0 0 805.281 525.589">
  <g id="그룹_209" data-name="그룹 209" transform="translate(1 1.013)">
    <ellipse id="타원_46" data-name="타원 46" cx="112.744" cy="20.303" rx="112.744" ry="20.303" transform="translate(286.116 482.999) rotate(-3.892)" fill="#fff" stroke="#000" stroke-linecap="round" stroke-miterlimit="10" stroke-width="2"/>
    <g id="패스_151" data-name="패스 151" transform="translate(-5422.684 -4254.259)" fill="#fff" stroke-linecap="round" stroke-miterlimit="10">
      <path d="M 5448.2373046875 4769.091796875 L 5448.2373046875 4323.57080078125 L 6221.6416015625 4269.6884765625 L 6221.6416015625 4715.2099609375 L 5448.2373046875 4769.091796875 Z" stroke="none"/>
      <path d="M 5449.2373046875 4768.02001953125 L 6220.6416015625 4714.27685546875 L 6220.6416015625 4270.76025390625 L 5449.2373046875 4324.50390625 L 5449.2373046875 4768.02001953125 M 5447.2373046875 4770.1640625 L 5447.2373046875 4322.63818359375 L 6222.6416015625 4268.6162109375 L 6222.6416015625 4716.142578125 L 5447.2373046875 4770.1640625 Z" stroke="none" fill="#000"/>
    </g>
    <g id="패스_152" data-name="패스 152" transform="translate(-5417.702 -4250.698)" fill="#7e7e86" stroke-linecap="round" stroke-miterlimit="10">
      <path d="M 5483.15234375 4737.01220703125 L 5483.15234375 4342.38427734375 L 6176.7626953125 4294.64453125 L 6176.7626953125 4689.2724609375 L 5483.15234375 4737.01220703125 Z" stroke="none"/>
      <path d="M 5484.15234375 4735.94091796875 L 6175.7626953125 4688.3388671875 L 6175.7626953125 4295.7158203125 L 5484.15234375 4343.31787109375 L 5484.15234375 4735.94091796875 M 5482.15234375 4738.08349609375 L 5482.15234375 4341.45068359375 L 6177.7626953125 4293.5732421875 L 6177.7626953125 4690.2060546875 L 5482.15234375 4738.08349609375 Z" stroke="none" fill="#000"/>
    </g>
    <path id="패스_153" data-name="패스 153" d="M6225.708,4272.716l-40.43-16.664-759.528,48.272v445.119l31.361,22.514V4326.489Z" transform="translate(-5425.75 -4256.052)" fill="#fff" stroke="#000" stroke-linecap="round" stroke-miterlimit="10" stroke-width="2"/>
  </g>
</svg>
