<svg xmlns="http://www.w3.org/2000/svg" width="486.22" height="197.073" viewBox="0 0 486.22 197.073">
  <g id="그룹_312" data-name="그룹 312" transform="translate(5727.967 -3310.15)">
    <g id="패스_163" data-name="패스 163" transform="translate(-5484.857 2150.24)" fill="#494949" stroke-miterlimit="10">
      <path d="M 33.60823822021484 1355.9833984375 L -242.1099853515625 1355.9833984375 L -242.1099853515625 1343.864379882812 L -226.5950012207031 1330.849975585938 L -23.43848609924316 1166.35693359375 L 242.1105041503906 1166.35693359375 L 242.1105041503906 1178.72802734375 L 33.60823822021484 1355.9833984375 Z" stroke="none"/>
      <path d="M -23.08442687988281 1167.35693359375 L -225.9586791992188 1331.621459960938 L -241.1100006103516 1344.330810546875 L -241.1100006103516 1354.9833984375 L 33.24060440063477 1354.9833984375 L 241.1104583740234 1178.265625 L 241.1104583740234 1167.35693359375 L -23.08442687988281 1167.35693359375 M -23.79254150390625 1165.35693359375 L 243.1104583740234 1165.35693359375 L 243.1104583740234 1179.1904296875 L 33.97586059570312 1356.9833984375 L -243.1100006103516 1356.9833984375 L -243.1100006103516 1343.39794921875 L -227.2314147949219 1330.07861328125 L -23.79254150390625 1165.35693359375 Z" stroke="none" fill="#161619"/>
    </g>
    <g id="패스_164" data-name="패스 164" transform="translate(-5484.857 2150.24)" fill="#fff" stroke-miterlimit="10">
      <path d="M 33.6077995300293 1342.397705078125 L -240.316650390625 1342.397705078125 L -25.96137428283691 1166.356811523438 L 240.3932037353516 1166.356811523438 L 33.6077995300293 1342.397705078125 Z" stroke="none"/>
      <path d="M 33.23985290527344 1341.397705078125 L 237.6758880615234 1167.356811523438 L -25.60337066650391 1167.356811523438 L -237.5233306884766 1341.397705078125 L 33.23985290527344 1341.397705078125 M 33.97586059570312 1343.397705078125 L -243.1099395751953 1343.397705078125 L -26.31940650939941 1165.356811523438 L 243.1104583740234 1165.356811523438 L 33.97586059570312 1343.397705078125 Z" stroke="none" fill="#161619"/>
    </g>
    <g id="패스_165" data-name="패스 165" transform="translate(-5484.857 2150.24)" fill="#fff" stroke-miterlimit="10">
      <path d="M 26.10957145690918 1311.538330078125 L -186.7084808349609 1311.538330078125 L -23.68142890930176 1174.790283203125 L 186.7398834228516 1174.790283203125 L 26.10957145690918 1311.538330078125 Z" stroke="none"/>
      <path d="M 25.74153137207031 1310.538330078125 L 184.0225830078125 1175.790283203125 L -23.3175106048584 1175.790283203125 L -183.9602508544922 1310.538330078125 L 25.74153137207031 1310.538330078125 M 26.47757530212402 1312.538330078125 L -189.4566955566406 1312.538330078125 L -24.04526710510254 1173.790283203125 L 189.4572143554688 1173.790283203125 L 26.47757530212402 1312.538330078125 Z" stroke="none" fill="#161619"/>
    </g>
    <g id="패스_166" data-name="패스 166" transform="translate(-5484.857 2150.24)" fill="#fff" stroke-miterlimit="10">
      <path d="M 135.656005859375 1186.671020507812 L -8.391994476318359 1186.671020507812 C -10.01551914215088 1186.671020507812 -10.98311424255371 1185.601928710938 -11.34725666046143 1184.601440429688 C -11.7115421295166 1183.6005859375 -11.657470703125 1182.1591796875 -10.41318511962891 1181.114990234375 L 8.519647598266602 1165.234252929688 C 11.84514808654785 1162.44580078125 16.06581497192383 1160.910034179688 20.40400505065918 1160.910034179688 L 160.4179992675781 1160.910034179688 C 162.468505859375 1160.910034179688 163.6903076171875 1162.259887695312 164.1500091552734 1163.523193359375 C 164.6097259521484 1164.78662109375 164.5412139892578 1166.606079101562 162.9703369140625 1167.923828125 L 144.4253387451172 1183.479858398438 C 141.9712219238281 1185.537719726562 138.8568420410156 1186.671020507812 135.656005859375 1186.671020507812 Z" stroke="none"/>
      <path d="M 135.656005859375 1185.671020507812 C 138.6222534179688 1185.671020507812 141.5084533691406 1184.62060546875 143.7826690673828 1182.713623046875 L 162.3276672363281 1167.15771484375 C 163.8068084716797 1165.916870117188 163.377197265625 1164.323852539062 163.2102813720703 1163.865234375 C 163.0433959960938 1163.406494140625 162.3487854003906 1161.910034179688 160.4179992675781 1161.910034179688 L 20.40400505065918 1161.910034179688 C 16.30039405822754 1161.910034179688 12.30792140960693 1163.36279296875 9.162310600280762 1166.000366210938 L -9.770383834838867 1181.881103515625 C -10.8386058807373 1182.777465820312 -10.52816200256348 1183.928100585938 -10.40757846832275 1184.259399414062 C -10.28705024719238 1184.590576171875 -9.785467147827148 1185.671020507812 -8.391994476318359 1185.671020507812 L 135.656005859375 1185.671020507812 M 135.656005859375 1187.671020507812 L -8.391994476318359 1187.671020507812 C -12.26199531555176 1187.671020507812 -14.02099514007568 1182.837036132812 -11.05599498748779 1180.348999023438 L 7.877005100250244 1164.468017578125 C 11.38800525665283 1161.524047851562 15.82300472259521 1159.910034179688 20.40400505065918 1159.910034179688 L 160.4179992675781 1159.910034179688 C 165.0599975585938 1159.910034179688 167.1690063476562 1165.70703125 163.6130065917969 1168.68994140625 L 145.0680084228516 1184.245971679688 C 142.4300079345703 1186.4580078125 139.0980072021484 1187.671020507812 135.656005859375 1187.671020507812 Z" stroke="none" fill="#161619"/>
    </g>
    <path id="패스_167" data-name="패스 167" d="M33.976,1165.357" transform="translate(-5484.857 2150.24)" fill="#fff" stroke="#161619" stroke-miterlimit="10" stroke-width="2"/>
    <text id="ABOUT" transform="translate(-5547.856 3403.687)" font-size="30.851" font-family="Orbitron-Bold, Orbitron" font-weight="700"><tspan x="0" y="0">ABOUT</tspan></text>
  </g>
</svg>
