<svg id="그룹_79" data-name="그룹 79" xmlns="http://www.w3.org/2000/svg" width="202.807" height="185.484" viewBox="0 0 202.807 185.484">
  <path id="패스_21" data-name="패스 21" d="M1191.662,702.789c-6.965-6.965-18.677-7.907-32.118-3.808.081-7.254-1.919-13.4-6.24-17.724-14.375-14.375-48.964-3.093-77.256,25.2s-39.575,62.881-25.2,77.256c6.965,6.966,18.677,7.907,32.118,3.808-.081,7.254,1.919,13.4,6.24,17.724,14.375,14.375,48.964,3.093,77.256-25.2S1206.038,717.164,1191.662,702.789Z" transform="translate(-995.101 -626.006)" fill="#ecdf19"/>
  <g id="타원_5" data-name="타원 5" transform="translate(0 102.135) rotate(-45)" fill="#fff" stroke="#000" stroke-miterlimit="10" stroke-width="1">
    <ellipse cx="72.221" cy="36.694" rx="72.221" ry="36.694" stroke="none"/>
    <ellipse cx="72.221" cy="36.694" rx="71.721" ry="36.194" fill="none"/>
  </g>
</svg>
