<svg xmlns="http://www.w3.org/2000/svg" width="468.586" height="417.154" viewBox="0 0 468.586 417.154">
  <g id="그룹_272" data-name="그룹 272" transform="translate(-669.923 -306.423)">
    <path id="패스_36" data-name="패스 36" d="M1421.019,260.794c-21.29-21.291-57.086-24.167-98.171-11.639.247-22.171-5.866-40.966-19.073-54.175-43.938-43.938-149.661-9.453-236.138,77.026s-120.964,192.2-77.026,236.138c21.291,21.29,57.088,24.167,98.173,11.637-.247,22.173,5.866,40.968,19.073,54.175,43.938,43.938,149.661,9.453,236.138-77.024S1464.957,304.732,1421.019,260.794Z" transform="translate(-301.6 130.532)" fill="#ecdf19"/>
    <path id="패스_37" data-name="패스 37" d="M1024.017,322.031c132.194,121.522,330.12,114.686,330.12,114.686" transform="translate(-268.892 221.587)" fill="none" stroke="#161619" stroke-miterlimit="10" stroke-width="3"/>
    <g id="그룹_66" data-name="그룹 66" transform="translate(789.727 400.511)">
      <g id="타원_10" data-name="타원 10" transform="translate(0 0)" fill="#fff" stroke="#161619" stroke-miterlimit="10" stroke-width="3">
        <circle cx="57.245" cy="57.245" r="57.245" stroke="none"/>
        <circle cx="57.245" cy="57.245" r="55.745" fill="none"/>
      </g>
      <line id="선_30" data-name="선 30" x1="114.49" transform="translate(0 57.245)" fill="#fff" stroke="#000" stroke-miterlimit="10" stroke-width="2"/>
    </g>
  </g>
</svg>
